<svg xmlns="http://www.w3.org/2000/svg" viewBox="0 0 256 256" role="img" aria-labelledby="title">
	<title>ADYS Font</title>
	<rect width="256" height="256" rx="18" fill="#6A3A9A" />
	<path fill="#FFFFFF" d="M224.5 218.7c-8.5 10.8-21.6 16.1-39.1 16.1-13.4 0-23.8-3.7-31.3-11.1-7.4-7.4-13.5-18.8-18.2-34.2l-7.4-23.5H85.6l-5.2 16.7c-4.7 15.1-6.1 26.3-4.1 33.6 2 7.4 8.2 11.1 18.7 11.1v3.7c-14 2.5-27.4 3.8-40.3 3.8-12.6 0-22-1.6-28.2-4.9-6.2-3.3-8-8.4-5.4-15.3L91.2 35.8c1.6-4.1 1.5-8.1-0.2-11.8-1.7-3.7-4.2-6.1-7.4-7.1V13.2c11.1-2.5 25.1-3.7 42.1-3.7 6.5 0 11.6 1 15.4 3.1 3.8 2 6.7 5.9 8.7 11.7l47.7 141.5c5.4 16 10 27.4 13.8 34.4 3.8 6.9 8.2 11.8 13.2 14.8v3.7ZM94.5 139.3h25.6l-13.5-42.7-12.1 42.7Z" />
</svg>
